<svg width="24.000000" height="24.000000" viewBox="0 0 24 24" fill="none" xmlns="http://www.w3.org/2000/svg" xmlns:xlink="http://www.w3.org/1999/xlink">
	<desc>
			Created with Pixso.
	</desc>
	<defs>
		<clipPath id="clip8_1489">
			<rect id="repeat" rx="0.000000" width="23.000000" height="23.000000" transform="translate(0.500000 0.500000)" fill="white" fill-opacity="0"/>
		</clipPath>
	</defs>
	<rect id="repeat" rx="0.000000" width="23.000000" height="23.000000" transform="translate(0.500000 0.500000)" fill="#FFFFFF" fill-opacity="0"/>
	<g clip-path="url(#clip8_1489)">
		<path id="Vector" d="M17 1L21 5L17 9" stroke="#000000" stroke-opacity="1.000000" stroke-width="1.400000" stroke-linejoin="round" stroke-linecap="round"/>
		<path id="Vector" d="M3 11L3 9C3 7.93 3.42 6.92 4.17 6.17C4.92 5.42 5.93 5 7 5L21 5" stroke="#000000" stroke-opacity="1.000000" stroke-width="1.400000" stroke-linejoin="round" stroke-linecap="round"/>
		<path id="Vector" d="M7 23L3 19L7 15" stroke="#000000" stroke-opacity="1.000000" stroke-width="1.400000" stroke-linejoin="round" stroke-linecap="round"/>
		<path id="Vector" d="M21 13L21 15C21 16.06 20.57 17.07 19.82 17.82C19.07 18.57 18.06 19 17 19L3 19" stroke="#000000" stroke-opacity="1.000000" stroke-width="1.400000" stroke-linejoin="round" stroke-linecap="round"/>
	</g>
</svg>
